<?xml version="1.0" encoding="utf-8"?>
<svg viewBox="98 28.062 503.94 503.94" width="503.94pt" height="503.94pt" xmlns="http://www.w3.org/2000/svg">
  <path d="M 475.95 28.062 L 98 28.062 L 98 532.002 L 601.94 532.002 L 601.94 28.062 L 475.95 28.062 Z M 538.942 37.8 L 592.192 91.058 L 538.942 144.312 L 485.688 91.062 L 538.942 37.8 Z M 412.962 37.8 L 466.212 91.058 L 412.962 144.308 L 359.708 91.058 L 412.962 37.8 Z M 412.962 396.28 L 359.708 343.03 L 412.962 289.772 L 466.212 343.03 L 412.962 396.28 Z M 286.982 396.28 L 233.728 343.03 L 286.982 289.772 L 340.232 343.03 L 286.982 396.28 Z M 286.982 163.78 L 340.232 217.038 L 286.978 270.296 L 233.728 217.042 L 286.982 163.78 Z M 412.962 270.3 L 359.708 217.05 L 412.962 163.792 L 466.212 217.05 L 412.962 270.3 Z M 286.972 37.8 L 340.222 91.058 L 286.972 144.308 L 233.722 91.058 L 286.972 37.8 Z M 160.992 37.8 L 214.242 91.058 L 160.992 144.308 L 107.738 91.058 L 160.992 37.8 Z M 214.246 217.04 L 160.992 270.294 L 107.738 217.044 L 160.992 163.786 L 214.246 217.04 Z M 214.246 343.02 L 160.996 396.27 L 107.742 343.02 L 160.996 289.762 L 214.246 343.02 Z M 160.992 522.25 L 107.742 469 L 160.996 415.742 L 214.246 469 L 160.992 522.25 Z M 286.972 522.25 L 233.722 469 L 286.976 415.742 L 340.226 469 L 286.972 522.25 Z M 412.952 522.25 L 359.702 469 L 412.956 415.742 L 466.206 469 L 412.952 522.25 Z M 538.932 522.25 L 485.682 469 L 538.936 415.742 L 592.186 469 L 538.932 522.25 Z M 485.682 343.02 L 538.936 289.762 L 592.186 343.02 L 538.936 396.27 L 485.682 343.02 Z M 485.682 217.04 L 538.936 163.782 L 592.186 217.04 L 538.936 270.294 L 485.682 217.04 Z"/>
</svg>